<svg width="21" height="22" viewBox="0 0 21 22" fill="none" xmlns="http://www.w3.org/2000/svg">
<path d="M10.4432 0.782074C4.82961 0.782074 0.273682 5.33801 0.273682 10.9516C0.273682 16.5651 4.82961 21.1211 10.4432 21.1211C16.0567 21.1211 20.6127 16.5651 20.6127 10.9516C20.6127 5.33801 16.0567 0.782074 10.4432 0.782074ZM5.42961 17.338C5.8669 16.4228 8.53131 15.5278 10.4432 15.5278C12.355 15.5278 15.0296 16.4228 15.4567 17.338C14.0737 18.4363 12.3347 19.0872 10.4432 19.0872C8.55165 19.0872 6.81266 18.4363 5.42961 17.338ZM16.911 15.8634C15.4567 14.0939 11.9279 13.4939 10.4432 13.4939C8.95843 13.4939 5.42961 14.0939 3.97538 15.8634C2.89502 14.4538 2.30891 12.7276 2.30758 10.9516C2.30758 6.46682 5.95843 2.81597 10.4432 2.81597C14.9279 2.81597 18.5788 6.46682 18.5788 10.9516C18.5788 12.8024 17.9483 14.5007 16.911 15.8634ZM10.4432 4.84987C8.47029 4.84987 6.88385 6.43631 6.88385 8.40919C6.88385 10.3821 8.47029 11.9685 10.4432 11.9685C12.4161 11.9685 14.0025 10.3821 14.0025 8.40919C14.0025 6.43631 12.4161 4.84987 10.4432 4.84987ZM10.4432 9.93462C9.59911 9.93462 8.91775 9.25326 8.91775 8.40919C8.91775 7.56512 9.59911 6.88377 10.4432 6.88377C11.2872 6.88377 11.9686 7.56512 11.9686 8.40919C11.9686 9.25326 11.2872 9.93462 10.4432 9.93462Z" fill="#A2A4B9"/>
</svg>
