<?xml version="1.0" encoding="utf-8"?>
<!-- Generator: Adobe Illustrator 28.2.0, SVG Export Plug-In . SVG Version: 6.00 Build 0)  -->
<svg version="1.1" xmlns="http://www.w3.org/2000/svg" xmlns:xlink="http://www.w3.org/1999/xlink" x="0px" y="0px"
	 viewBox="0 240 595.28 120" style="enable-background:new 0 0 595.28 595.28;" xml:space="preserve">
<style type="text/css">
	.st0{fill:#5CAA37;}
	.st1{fill:#58378D;}
</style>
<g id="Capa_1">
</g>
<g id="OBJECTS">
	<g id="_x37__1_">
	</g>
	<g>
		<g id="H_00000067232311314100393130000015130382636273693345_">
			<path class="st0" d="M228.25,299.79c0-11.12,9.05-20.16,20.16-20.16c0.17,0,0.33,0.01,0.5,0.01v-7.93c-0.17,0-0.33-0.01-0.5-0.01
				c-15.49,0-28.1,12.6-28.1,28.1c0,0.06,0,0.11,0,0.17h7.93C228.25,299.9,228.25,299.84,228.25,299.79z"/>
			<path class="st0" d="M276.51,299.79h-7.93c0,10.95-8.78,19.89-19.67,20.15v7.93C264.17,327.61,276.51,315.11,276.51,299.79z"/>
			<path class="st1" d="M248.91,319.94c-0.16,0-0.33,0.01-0.5,0.01c-11.06,0-20.07-8.96-20.16-20h-7.93
				c0.09,15.42,12.65,27.93,28.09,27.93c0.17,0,0.33-0.01,0.5-0.01V319.94z"/>
		</g>
		<g>
			<path d="M51.59,276.54c15.28,0,25.12,10.14,25.12,23.36c0,13.29-9.84,23.36-25.12,23.36H34.84v-5.21h16.75
				c11.9,0,18.8-8.15,18.8-18.22c0-10.06-6.68-18.22-18.8-18.22H40.94v31.29h-6.1v-36.51h16.75V276.54z"/>
			<path d="M82.66,323.18v-46.79h6.1v46.79H82.66z"/>
			<path d="M135.1,276.39v46.79h-5.88l-28.57-37.32v37.32h-6.1v-46.79h6.24l28.21,36.51v-36.51H135.1z"/>
			<path d="M173.08,276.39v5.22h-26v9.99h-6.1v-15.21H173.08z M172.57,301.88h-31.59v-5.22h31.59V301.88z M147.08,317.97h26v5.21
				h-32.1v-16.23h6.1V317.97z"/>
			<path d="M214.51,323.33h-7.2l-12.41-18.58h-9.84v18.58h-6.1V299.6h18.95c5.8,0,9.84-3.75,9.84-9.04c0-5.36-4.04-8.96-9.84-8.96
				h-12.85v12.78h-6.1v-18h19.69c8.96,0,15.43,5.44,15.43,14.03c0,8.45-6.1,13.08-12.78,13.66L214.51,323.33z"/>
		</g>
		<g>
			<path d="M334.13,299.01h13.08v16.82c-4.55,4.92-11.24,8.15-19.25,8.15c-13.96,0-25.2-9.77-25.2-24.31
				c0-14.62,11.24-24.24,25.2-24.24c8.74,0,14.76,3.67,19.02,8.74l-4.85,2.94c-3.08-3.82-8.3-6.46-14.18-6.46
				c-10.72,0-18.88,7.79-18.88,19.02c0,11.09,8.15,19.03,18.88,19.03c5.88,0,10.72-2.64,13.22-5v-9.48h-7.05V299.01z"/>
			<path d="M385.18,276.39v5.22h-26v9.99h-6.1v-15.21H385.18z M384.66,301.88h-31.59v-5.22h31.59V301.88z M359.17,317.97h26v5.21
				h-32.1v-16.23h6.1V317.97z"/>
			<path d="M427.93,310.25c0,6.76-4.85,13.74-18.07,13.74c-8.45,0-14.76-3.09-18.8-7.42l3.67-4.48c3.16,3.53,8.45,6.76,15.35,6.76
				c8.74,0,11.53-4.48,11.53-8.15c0-12.05-29.02-5.29-29.02-21.96c0-7.71,7.2-13.08,16.9-13.08c7.42,0,13.22,2.42,17.33,6.54
				l-3.67,4.26c-3.67-3.89-8.81-5.58-14.18-5.58c-5.8,0-10.06,3.01-10.06,7.42C398.91,298.79,427.93,292.77,427.93,310.25z"/>
			<path d="M432.33,281.6v-5.22h37.17v5.22H432.33z M447.83,323.18v-36.51h6.1v36.51H447.83z"/>
			<path d="M519.01,299.75c0,13.81-9.92,24.17-24.39,24.17s-24.31-10.36-24.31-24.17c0-13.81,9.84-24.17,24.31-24.17
				S519.01,285.94,519.01,299.75z M512.69,299.75c0-10.94-7.12-19.02-18.07-19.02c-11.02,0-18,8.08-18,19.02
				c0,10.87,6.98,19.03,18,19.03C505.57,318.77,512.69,310.62,512.69,299.75z"/>
			<path d="M560.44,323.33h-7.2l-12.41-18.58h-9.84v18.58h-6.1V299.6h18.95c5.8,0,9.84-3.75,9.84-9.04c0-5.36-4.04-8.96-9.84-8.96
				h-12.85v12.78h-6.1v-18h19.69c8.96,0,15.43,5.44,15.43,14.03c0,8.45-6.1,13.08-12.78,13.66L560.44,323.33z"/>
		</g>
	</g>
</g>
</svg>
