<svg width="18" height="22" viewBox="0 0 18 22" fill="none" xmlns="http://www.w3.org/2000/svg">
<path d="M8.99039 0.646515L0.273682 4.45017V10.1556C0.273682 15.4332 3.99281 20.3685 8.99039 21.5666C13.988 20.3685 17.7071 15.4332 17.7071 10.1556V4.45017L8.99039 0.646515ZM15.7701 10.1556C15.7701 11.9148 15.2761 13.6265 14.4335 15.1099L13.0291 13.7311C13.6445 12.817 13.919 11.722 13.806 10.6319C13.693 9.54177 13.1996 8.52354 12.4093 7.74984C11.5008 6.85919 10.2694 6.35895 8.98555 6.35895C7.70169 6.35895 6.47032 6.85919 5.56182 7.74984C4.65468 8.64182 4.14517 9.85081 4.14517 11.1113C4.14517 12.3718 4.65468 13.5808 5.56182 14.4728C6.35099 15.2468 7.38785 15.73 8.49758 15.8408C9.60732 15.9517 10.7221 15.6835 11.6538 15.0814L13.3197 16.717C12.1671 18.0672 10.6756 19.1037 8.99039 19.6077C5.09693 18.4191 2.21073 14.4538 2.21073 10.1556V5.68636L8.99039 2.72902L15.7701 5.68636V10.1556ZM8.99039 13.9593C7.38264 13.9593 6.08482 12.6851 6.08482 11.1066C6.08482 9.52805 7.38264 8.25382 8.99039 8.25382C10.5981 8.25382 11.896 9.52805 11.896 11.1066C11.896 12.6851 10.5981 13.9593 8.99039 13.9593Z" fill="#A2A4B9"/>
</svg>
