<svg width="17" height="19" viewBox="0 0 17 19" fill="none" xmlns="http://www.w3.org/2000/svg">
<path d="M16.5449 5.31482H13.6872C13.2286 4.5193 12.5958 3.83787 11.8364 3.3216L13.494 1.66397L12.0601 0.230072L9.85334 2.43685C9.38554 2.32499 8.90758 2.26397 8.40927 2.26397C7.91097 2.26397 7.433 2.32499 6.97538 2.43685L4.75843 0.230072L3.32453 1.66397L4.97199 3.3216C4.21944 3.84024 3.58894 4.5216 3.13131 5.31482H0.273682V7.34872H2.39911C2.34826 7.68431 2.30758 8.0199 2.30758 8.36567V9.38261H0.273682V11.4165H2.30758V12.4335C2.30758 12.7792 2.34826 13.1148 2.39911 13.4504H0.273682V15.4843H3.13131C4.18894 17.3046 6.15165 18.5352 8.40927 18.5352C10.6669 18.5352 12.6296 17.3046 13.6872 15.4843H16.5449V13.4504H14.4194C14.4703 13.1148 14.511 12.7792 14.511 12.4335V11.4165H16.5449V9.38261H14.511V8.36567C14.511 8.0199 14.4703 7.68431 14.4194 7.34872H16.5449V5.31482ZM12.4771 9.38261V12.4335C12.4771 12.6572 12.4466 12.9114 12.4059 13.1453L12.3042 13.8063L11.9279 14.4674C11.1957 15.7284 9.85334 16.5013 8.40927 16.5013C6.96521 16.5013 5.62283 15.7182 4.89063 14.4674L4.51436 13.8165L4.41266 13.1555C4.36883 12.9172 4.34502 12.6757 4.34148 12.4335V8.36567C4.34148 8.13177 4.37199 7.87753 4.41266 7.6538L4.51436 6.99278L4.89063 6.33177C5.19571 5.80295 5.62283 5.34533 6.12114 4.99956L6.7008 4.60295L7.45334 4.4199C8.08372 4.25746 8.74499 4.25746 9.37537 4.4199L10.0669 4.58261L10.6872 5.00973C11.1957 5.3555 11.6127 5.80295 11.9177 6.34194L12.3042 7.00295L12.4059 7.66397C12.4466 7.8877 12.4771 8.14194 12.4771 8.36567V9.38261ZM6.37538 11.4165H10.4432V13.4504H6.37538V11.4165ZM6.37538 7.34872H10.4432V9.38261H6.37538V7.34872Z" fill="#713BDB"/>
</svg>
