<?xml version="1.0" encoding="utf-8"?>
<!-- Generator: Adobe Illustrator 28.2.0, SVG Export Plug-In . SVG Version: 6.00 Build 0)  -->
<svg version="1.1" xmlns="http://www.w3.org/2000/svg" xmlns:xlink="http://www.w3.org/1999/xlink" x="0px" y="0px"
	 viewBox="0 0 595.28 595.28" style="enable-background:new 0 0 595.28 595.28;" xml:space="preserve">
<style type="text/css">
	.st0{fill:#5CAA37;}
	.st1{fill:#58378D;}
</style>
<g id="Capa_1">
</g>
<g id="OBJECTS">
	<g id="_x37__1_">
	</g>
	<g>
		<g id="H_00000155841203686194267520000017080187185622203793_">
			<path class="st1" d="M395.95,247.09c0-18.6,15.13-33.73,33.73-33.73c0.28,0,0.55,0.01,0.83,0.02V200.1
				c-0.28-0.01-0.55-0.02-0.83-0.02c-25.92,0-47.01,21.09-47.01,47.01c0,0.09,0.01,0.18,0.01,0.28h13.27
				C395.96,247.27,395.95,247.18,395.95,247.09z"/>
			<path class="st1" d="M476.69,247.09h-13.27c0,18.32-14.69,33.27-32.91,33.71v13.27C456.05,293.63,476.69,272.73,476.69,247.09z"
				/>
			<path class="st0" d="M430.52,280.8c-0.28,0.01-0.55,0.02-0.83,0.02c-18.51,0-33.58-14.98-33.73-33.46h-13.27
				c0.15,25.79,21.17,46.73,47,46.73c0.28,0,0.55-0.02,0.83-0.02V280.8z"/>
		</g>
		<g>
			<path d="M88.67,208.19c25.56,0,42.03,16.96,42.03,39.08c0,22.24-16.47,39.08-42.03,39.08H60.65v-8.73h28.02
				c19.91,0,31.46-13.64,31.46-30.48s-11.18-30.48-31.46-30.48H70.86v52.35h-10.2v-61.08h28.02V208.19z"/>
			<path d="M140.66,286.23v-78.28h10.2v78.28H140.66z"/>
			<path d="M228.4,207.94v78.28h-9.83l-47.81-62.43v62.43h-10.2v-78.28h10.45l47.19,61.08v-61.08H228.4z"/>
			<path d="M291.94,207.94v8.73h-43.5v16.71h-10.2v-25.44H291.94z M291.08,250.59h-52.84v-8.73h52.84V250.59z M248.43,277.5h43.5
				v8.73h-53.7v-27.16h10.2V277.5z"/>
			<path d="M361.25,286.47H349.2l-20.77-31.09h-16.47v31.09h-10.2v-39.7h31.71c9.71,0,16.47-6.27,16.47-15.12
				c0-8.97-6.76-14.99-16.47-14.99h-21.51v21.38h-10.2v-30.11h32.94c14.99,0,25.81,9.09,25.81,23.47c0,14.13-10.2,21.88-21.38,22.86
				L361.25,286.47z"/>
		</g>
		<g>
			<path d="M155.99,354.09h21.88v28.14c-7.62,8.23-18.8,13.64-32.2,13.64c-23.35,0-42.15-16.34-42.15-40.68
				c0-24.46,18.8-40.55,42.15-40.55c14.62,0,24.7,6.14,31.83,14.62l-8.11,4.92c-5.16-6.39-13.89-10.82-23.72-10.82
				c-17.94,0-31.58,13.03-31.58,31.83c0,18.56,13.64,31.83,31.58,31.83c9.83,0,17.94-4.42,22.12-8.36v-15.85h-11.8V354.09z"/>
			<path d="M241.4,316.24v8.72h-43.5v16.71h-10.2v-25.44H241.4z M240.54,358.88h-52.84v-8.73h52.84V358.88z M197.9,385.8h43.5v8.73
				h-53.7v-27.16h10.2V385.8z"/>
			<path d="M312.92,372.89c0,11.31-8.11,22.98-30.23,22.98c-14.13,0-24.7-5.16-31.46-12.41l6.14-7.5
				c5.28,5.9,14.13,11.31,25.68,11.31c14.62,0,19.29-7.5,19.29-13.64c0-20.16-48.54-8.85-48.54-36.75
				c0-12.9,12.04-21.88,28.27-21.88c12.41,0,22.12,4.06,29,10.94l-6.15,7.13c-6.14-6.51-14.75-9.34-23.72-9.34
				c-9.71,0-16.84,5.04-16.84,12.41C264.38,353.72,312.92,343.64,312.92,372.89z"/>
			<path d="M320.29,324.96v-8.72h62.18v8.72H320.29z M346.23,394.52v-61.08h10.2v61.08H346.23z"/>
			<path d="M465.31,355.32c0,23.1-16.59,40.43-40.8,40.43s-40.68-17.33-40.68-40.43c0-23.1,16.47-40.43,40.68-40.43
				S465.31,332.21,465.31,355.32z M454.74,355.32c0-18.31-11.92-31.83-30.23-31.83c-18.43,0-30.11,13.52-30.11,31.83
				c0,18.19,11.67,31.83,30.11,31.83C442.82,387.15,454.74,373.51,454.74,355.32z"/>
			<path d="M534.62,394.77h-12.04l-20.77-31.09h-16.47v31.09h-10.2v-39.7h31.71c9.71,0,16.47-6.27,16.47-15.12
				c0-8.97-6.76-14.99-16.47-14.99h-21.51v21.38h-10.2v-30.11h32.94c14.99,0,25.81,9.09,25.81,23.47c0,14.13-10.2,21.88-21.38,22.86
				L534.62,394.77z"/>
		</g>
	</g>
</g>
</svg>
