<svg width="0" height="0" class="hidden">
  <symbol xmlns="http://www.w3.org/2000/svg" viewBox="0 0 512 512" id="log-in">
    <path d="M192 176v-40a40 40 0 0140-40h160a40 40 0 0140 40v240a40 40 0 01-40 40H240c-22.09 0-48-17.91-48-40v-40" fill="none" stroke="currentColor" stroke-linecap="round" stroke-linejoin="round" stroke-width="32"></path>
    <path fill="none" stroke="currentColor" stroke-linecap="round" stroke-linejoin="round" stroke-width="32" d="M288 336l80-80-80-80M80 256h272"></path>
  </symbol>
  <symbol xmlns="http://www.w3.org/2000/svg" viewBox="0 -960 960 960" id="report">
    <path d="M480-160q-54.231 0-99.731-26.615-45.5-26.616-72.885-73.385H220q-8.5 0-14.25-5.758-5.75-5.757-5.75-14.269t5.75-14.242Q211.5-300 220-300h70.154Q281-329.231 280.5-359.487 280-389.744 280-420h-60q-8.5 0-14.25-5.758-5.75-5.757-5.75-14.269t5.75-14.242Q211.5-460 220-460h60q0-30.769-.269-61.154-.27-30.384 10.423-58.846H220q-8.5 0-14.25-5.758-5.75-5.757-5.75-14.269t5.75-14.242Q211.5-620 220-620h87.384q14.77-26.077 36.5-46.462 21.731-20.384 49.346-33.077l-58.538-58.769q-5.615-5.23-5.615-13.077 0-7.846 5.98-13.826 5.481-5.482 13.251-5.482 7.769 0 13.384 5.616L432.769-714q23.385-6.693 47-6.693 23.616 0 47 6.693l73.077-71.308q5.231-5.615 13.077-5.615t13.826 5.98q5.482 5.481 5.482 13.251 0 7.769-5.615 13.384l-58.77 58.769q27.616 12.693 48.808 32.962 21.192 20.269 35.962 46.577H740q8.5 0 14.25 5.758 5.75 5.757 5.75 14.269t-5.75 14.242Q748.5-580 740-580h-70.154q10.693 28.462 10.423 58.974Q680-490.513 680-460h60q8.5 0 14.25 5.758 5.75 5.757 5.75 14.269t-5.75 14.242Q748.5-420 740-420h-60q0 30-.5 60.385-.5 30.384-9.654 59.615H740q8.5 0 14.25 5.758 5.75 5.757 5.75 14.269t-5.75 14.242Q748.5-260 740-260h-87.384q-27.385 46.769-72.885 73.385Q534.231-160 480-160Zm0-40q66 0 113-47t47-113v-160q0-66-47-113t-113-47q-66 0-113 47t-47 113v160q0 66 47 113t113 47Zm-47.692-140h95.384q8.5 0 14.25-5.758 5.75-5.757 5.75-14.269t-5.75-14.242q-5.75-5.731-14.25-5.731h-95.384q-8.5 0-14.25 5.758-5.75 5.757-5.75 14.269t5.75 14.242q5.75 5.731 14.25 5.731Zm0-160h95.384q8.5 0 14.25-5.758 5.75-5.757 5.75-14.269t-5.75-14.242q-5.75-5.731-14.25-5.731h-95.384q-8.5 0-14.25 5.758-5.75 5.757-5.75 14.269t5.75 14.242q5.75 5.731 14.25 5.731ZM480-440Z"></path>
  </symbol>
  <symbol xmlns="http://www.w3.org/2000/svg" viewBox="0 0 512 512" id="return">
    <path fill="none" stroke="currentColor" stroke-linecap="round" stroke-linejoin="round" stroke-width="32" d="M112 352l-64-64 64-64"></path>
    <path d="M64 288h294c58.76 0 106-49.33 106-108v-20" fill="none" stroke="currentColor" stroke-linecap="round" stroke-linejoin="round" stroke-width="32"></path>
  </symbol>
  <symbol xmlns="http://www.w3.org/2000/svg" viewBox="0 0 512 512" id="remove">
    <path fill="none" stroke="currentColor" stroke-linecap="round" stroke-linejoin="round" stroke-width="32" d="M400 256H112"></path>
  </symbol>
  <symbol xmlns="http://www.w3.org/2000/svg" viewBox="0 0 512 512" id="arrow-right">
    <path fill="none" stroke="currentColor" stroke-linecap="round" stroke-linejoin="round" stroke-width="48" d="M184 112l144 144-144 144"></path>
  </symbol>
  <symbol xmlns="http://www.w3.org/2000/svg" viewBox="0 0 512 512" id="log-out">
    <path d="M304 336v40a40 40 0 01-40 40H104a40 40 0 01-40-40V136a40 40 0 0140-40h152c22.09 0 48 17.91 48 40v40M368 336l80-80-80-80M176 256h256" fill="none" stroke="currentColor" stroke-linecap="round" stroke-linejoin="round" stroke-width="32"></path>
  </symbol>
  <symbol xmlns="http://www.w3.org/2000/svg" viewBox="0 0 512 512" id="youtube">
    <path d="M508.64 148.79c0-45-33.1-81.2-74-81.2C379.24 65 322.74 64 265 64h-18c-57.6 0-114.2 1-169.6 3.6C36.6 67.6 3.5 104 3.5 149 1 184.59-.06 220.19 0 255.79q-.15 53.4 3.4 106.9c0 45 33.1 81.5 73.9 81.5 58.2 2.7 117.9 3.9 178.6 3.8q91.2.3 178.6-3.8c40.9 0 74-36.5 74-81.5 2.4-35.7 3.5-71.3 3.4-107q.34-53.4-3.26-106.9zM207 353.89v-196.5l145 98.2z"></path>
  </symbol>
  <symbol version="1.1" xmlns="http://www.w3.org/2000/svg" viewBox="0 0 300 300.251" id="x">
    <path d="M178.57 127.15 290.27 0h-26.46l-97.03 110.38L89.34 0H0l117.13 166.93L0 300.25h26.46l102.4-116.59 81.8 116.59h89.34M36.01 19.54H76.66l187.13 262.13h-40.66"></path>
  </symbol>
  <symbol xmlns="http://www.w3.org/2000/svg" viewBox="0 0 512 512" id="logo-instagram">
    <path d="M349.33 69.33a93.62 93.62 0 0193.34 93.34v186.66a93.62 93.62 0 01-93.34 93.34H162.67a93.62 93.62 0 01-93.34-93.34V162.67a93.62 93.62 0 0193.34-93.34h186.66m0-37.33H162.67C90.8 32 32 90.8 32 162.67v186.66C32 421.2 90.8 480 162.67 480h186.66C421.2 480 480 421.2 480 349.33V162.67C480 90.8 421.2 32 349.33 32z"></path>
    <path d="M377.33 162.67a28 28 0 1128-28 27.94 27.94 0 01-28 28zM256 181.33A74.67 74.67 0 11181.33 256 74.75 74.75 0 01256 181.33m0-37.33a112 112 0 10112 112 112 112 0 00-112-112z"></path>
  </symbol>
  <symbol xmlns="http://www.w3.org/2000/svg" viewBox="0 -960 960 960" id="undo">
    <path d="M316.154-240q-8.539 0-14.269-5.731-5.731-5.73-5.731-14.269 0-8.538 5.731-14.269 5.73-5.731 14.269-5.731h270.154q62.23 0 106.038-42.692 43.808-42.693 43.808-104.231t-43.808-103.846q-43.808-42.308-106.038-42.308H276.616l104.461 104.462q6.385 6.384 6.385 14.153 0 7.77-6.385 14.154-6.385 6.385-14.539 6-8.153-.384-13.769-6L222.615-570.462q-5.231-5.23-7.346-10.692-2.115-5.461-2.115-11.923T215.269-605q2.115-5.462 7.346-10.692l130.154-130.154q6.385-6.385 14.154-6.385t14.154 6.385q6.385 6.384 6 14.538-.385 8.154-6 13.77L276.616-613.077h309.692q78.538 0 134.192 54.154 55.654 54.154 55.654 132T720.5-294.538Q664.846-240 586.308-240H316.154Z"></path>
  </symbol>
  <symbol xmlns="http://www.w3.org/2000/svg" viewBox="0 -960 960 960" id="close">
    <path d="M480-451.692 270.154-241.846q-5.615 5.615-13.769 6-8.154.385-14.539-6T235.461-256q0-7.769 6.385-14.154L451.692-480 241.846-689.846q-5.615-5.615-6-13.769-.385-8.154 6-14.539T256-724.539q7.769 0 14.154 6.385L480-508.308l209.846-209.846q5.615-5.615 13.769-6 8.154-.385 14.539 6T724.539-704q0 7.769-6.385 14.154L508.308-480l209.846 209.846q5.615 5.615 6 13.769.385 8.154-6 14.539T704-235.461q-7.769 0-14.154-6.385L480-451.692Z"></path>
  </symbol>
  <symbol xmlns="http://www.w3.org/2000/svg" viewBox="0 -960 960 960" id="check">
    <path d="m382-324.769 352.077-352.077q5.846-5.846 13.885-6.231 8.038-.385 14.653 6.231 6.616 6.615 6.616 14.269t-6.616 14.269l-358 358q-9.692 9.693-22.615 9.693-12.923 0-22.615-9.693l-162-162q-5.847-5.846-6.116-13.884-.269-8.039 6.346-14.654 6.616-6.616 14.27-6.616t14.269 6.616L382-324.769Z"></path>
  </symbol>
  <symbol xmlns="http://www.w3.org/2000/svg" viewBox="0 -960 960 960" id="edit-variant">
    <path d="M200-200h43.923l427.923-427.923-43.923-43.923L200-243.923V-200Zm-7.693 40q-13.73 0-23.019-9.288Q160-178.577 160-192.307v-41.616q0-13.265 5.231-25.287 5.23-12.021 13.923-20.713l508.077-508.616q6.146-5.481 13.573-8.471 7.427-2.99 15.486-2.99 8.06 0 15.616 2.538 7.556 2.539 13.94 9.154l42.693 42.923q6.615 6.385 9.038 14.008Q800-723.754 800-716.131q0 8.131-2.741 15.558-2.74 7.427-8.72 13.573L279.923-179.154q-8.692 8.693-20.713 13.923Q247.188-160 233.923-160h-41.616Zm568.462-556.308-44.461-44.461 44.461 44.461Zm-111.27 66.809-21.576-22.347 43.923 43.923-22.347-21.576Z"></path>
  </symbol>
  <symbol xmlns="http://www.w3.org/2000/svg" viewBox="0 -960 960 960" id="edit">
    <path d="M120 0q-16.077 0-28.038-11.577Q80-23.154 80-40q0-16.077 11.962-28.039Q103.923-80 120-80h720q16.077 0 28.038 11.578Q880-56.847 880-40q0 16.077-11.962 28.038Q856.077 0 840 0H120Zm120-286.923h42.923l352-351.769-21.308-22.077-21.846-21.077-351.769 352v42.923Zm-40 7.692v-54.539q0-6.461 1.846-12.038t7.077-10.808l439.846-438.846q6.385-6.385 13.962-9.308t15.115-2.923q8.308 0 15.231 2.923t13.538 9.539l41.154 41.385q6.616 6.384 9.424 13.692Q760-732.846 760-724.539q0 7.308-2.807 14.885-2.808 7.577-9.424 14.193L308.923-256.615q-5.23 5.23-10.807 7.461t-12.039 2.231h-53.77q-13.923 0-23.115-9.192Q200-265.308 200-279.231Zm520.769-445.538-42.923-42.924 42.923 42.924Zm-85.846 86.077-21.308-22.077-21.846-21.077 43.154 43.154Z"></path>
  </symbol>
  <symbol xmlns="http://www.w3.org/2000/svg" viewBox="0 0 512 512" id="history">
    <path d="M416 221.25V416a48 48 0 01-48 48H144a48 48 0 01-48-48V96a48 48 0 0148-48h98.75a32 32 0 0122.62 9.37l141.26 141.26a32 32 0 019.37 22.62z" fill="none" stroke="currentColor" stroke-linejoin="round" stroke-width="32"></path>
    <path d="M256 56v120a32 32 0 0032 32h120M176 288h160M176 368h160" fill="none" stroke="currentColor" stroke-linecap="round" stroke-linejoin="round" stroke-width="32"></path>
  </symbol>
  <symbol xmlns="http://www.w3.org/2000/svg" viewBox="0 0 512 512" id="eyy-off">
    <path d="M432 448a15.92 15.92 0 01-11.31-4.69l-352-352a16 16 0 0122.62-22.62l352 352A16 16 0 01432 448zM255.66 384c-41.49 0-81.5-12.28-118.92-36.5-34.07-22-64.74-53.51-88.7-91v-.08c19.94-28.57 41.78-52.73 65.24-72.21a2 2 0 00.14-2.94L93.5 161.38a2 2 0 00-2.71-.12c-24.92 21-48.05 46.76-69.08 76.92a31.92 31.92 0 00-.64 35.54c26.41 41.33 60.4 76.14 98.28 100.65C162 402 207.9 416 255.66 416a239.13 239.13 0 0075.8-12.58 2 2 0 00.77-3.31l-21.58-21.58a4 4 0 00-3.83-1 204.8 204.8 0 01-51.16 6.47zM490.84 238.6c-26.46-40.92-60.79-75.68-99.27-100.53C349 110.55 302 96 255.66 96a227.34 227.34 0 00-74.89 12.83 2 2 0 00-.75 3.31l21.55 21.55a4 4 0 003.88 1 192.82 192.82 0 0150.21-6.69c40.69 0 80.58 12.43 118.55 37 34.71 22.4 65.74 53.88 89.76 91a.13.13 0 010 .16 310.72 310.72 0 01-64.12 72.73 2 2 0 00-.15 2.95l19.9 19.89a2 2 0 002.7.13 343.49 343.49 0 0068.64-78.48 32.2 32.2 0 00-.1-34.78z"></path>
    <path d="M256 160a95.88 95.88 0 00-21.37 2.4 2 2 0 00-1 3.38l112.59 112.56a2 2 0 003.38-1A96 96 0 00256 160zM165.78 233.66a2 2 0 00-3.38 1 96 96 0 00115 115 2 2 0 001-3.38z"></path>
  </symbol>
  <symbol xmlns="http://www.w3.org/2000/svg" viewBox="0 0 512 512" id="search">
    <path d="M221.09 64a157.09 157.09 0 10157.09 157.09A157.1 157.1 0 00221.09 64z" fill="none" stroke="currentColor" stroke-miterlimit="10" stroke-width="32"></path>
    <path fill="none" stroke="currentColor" stroke-linecap="round" stroke-miterlimit="10" stroke-width="32" d="M338.29 338.29L448 448"></path>
  </symbol>
  <symbol xmlns="http://www.w3.org/2000/svg" viewBox="0 0 512 512" id="calendar">
    <rect fill="none" stroke="currentColor" stroke-linejoin="round" stroke-width="32" x="48" y="80" width="416" height="384" rx="48"></rect>
    <circle cx="296" cy="232" r="24"></circle>
    <circle cx="376" cy="232" r="24"></circle>
    <circle cx="296" cy="312" r="24"></circle>
    <circle cx="376" cy="312" r="24"></circle>
    <circle cx="136" cy="312" r="24"></circle>
    <circle cx="216" cy="312" r="24"></circle>
    <circle cx="136" cy="392" r="24"></circle>
    <circle cx="216" cy="392" r="24"></circle>
    <circle cx="296" cy="392" r="24"></circle>
    <path fill="none" stroke="currentColor" stroke-linejoin="round" stroke-width="32" stroke-linecap="round" d="M128 48v32M384 48v32"></path>
    <path fill="none" stroke="currentColor" stroke-linejoin="round" stroke-width="32" d="M464 160H48"></path>
  </symbol>
  <symbol xmlns="http://www.w3.org/2000/svg" viewBox="0 0 512 512" id="user">
    <path d="M344 144c-3.92 52.87-44 96-88 96s-84.15-43.12-88-96c-4-55 35-96 88-96s92 42 88 96z" fill="none" stroke="currentColor" stroke-linecap="round" stroke-linejoin="round" stroke-width="32"></path>
    <path d="M256 304c-87 0-175.3 48-191.64 138.6C62.39 453.52 68.57 464 80 464h352c11.44 0 17.62-10.48 15.65-21.4C431.3 352 343 304 256 304z" fill="none" stroke="currentColor" stroke-miterlimit="10" stroke-width="32"></path>
  </symbol>
  <symbol xmlns="http://www.w3.org/2000/svg" viewBox="0 0 512 512" id="menu">
    <rect x="48" y="48" width="176" height="176" rx="20" ry="20" fill="none" stroke="currentColor" stroke-linecap="round" stroke-linejoin="round" stroke-width="32"></rect>
    <rect x="288" y="48" width="176" height="176" rx="20" ry="20" fill="none" stroke="currentColor" stroke-linecap="round" stroke-linejoin="round" stroke-width="32"></rect>
    <rect x="48" y="288" width="176" height="176" rx="20" ry="20" fill="none" stroke="currentColor" stroke-linecap="round" stroke-linejoin="round" stroke-width="32"></rect>
    <rect x="288" y="288" width="176" height="176" rx="20" ry="20" fill="none" stroke="currentColor" stroke-linecap="round" stroke-linejoin="round" stroke-width="32"></rect>
  </symbol>
  <symbol xmlns="http://www.w3.org/2000/svg" viewBox="0 -960 960 960" id="monitoring">
    <path d="M120-160v-40l80-80v120q0 17-11.5 28.5T160-120q-17 0-28.5-11.5T120-160Zm160 0v-200l80-80v280q0 17-11.5 28.5T320-120q-17 0-28.5-11.5T280-160Zm160 0v-280l80 81v199q0 17-11.5 28.5T480-120q-17 0-28.5-11.5T440-160Zm160 0v-199l80-80v279q0 17-11.5 28.5T640-120q-17 0-28.5-11.5T600-160Zm160 0v-360l80-80v440q0 17-11.5 28.5T800-120q-17 0-28.5-11.5T760-160ZM132-452l211-211q23-23 57-23t57 23l103 103 212-212q12-12 28.5-11.5T829-771q11 12 10.5 28.5T828-715L617-504q-23 23-57 23t-57-23L400-607 188-395q-12 12-28.5 11.5T131-396q-11-12-10.5-28.5T132-452Z"></path>
  </symbol>
  <symbol xmlns="http://www.w3.org/2000/svg" viewBox="0 0 512 512" id="home-outline">
    <path d="M80 212v236a16 16 0 0016 16h96V328a24 24 0 0124-24h80a24 24 0 0124 24v136h96a16 16 0 0016-16V212" fill="none" stroke="currentColor" stroke-linecap="round" stroke-linejoin="round" stroke-width="32"></path>
    <path d="M480 256L266.89 52c-5-5.28-16.69-5.34-21.78 0L32 256M400 179V64h-48v69" fill="none" stroke="currentColor" stroke-linecap="round" stroke-linejoin="round" stroke-width="32"></path>
  </symbol>
  <symbol xmlns="http://www.w3.org/2000/svg" viewBox="0 0 512 512" id="heart">
    <path d="M352.92 80C288 80 256 144 256 144s-32-64-96.92-64c-52.76 0-94.54 44.14-95.08 96.81-1.1 109.33 86.73 187.08 183 252.42a16 16 0 0018 0c96.26-65.34 184.09-143.09 183-252.42-.54-52.67-42.32-96.81-95.08-96.81z" fill="none" stroke="currentColor" stroke-linecap="round" stroke-linejoin="round" stroke-width="32"></path>
  </symbol>
  <symbol xmlns="http://www.w3.org/2000/svg" viewBox="0 0 512 512" id="transfer">
    <path fill="none" stroke="currentColor" stroke-linecap="round" stroke-linejoin="round" stroke-width="32" d="M464 208L352 96 240 208M352 113.13V416M48 304l112 112 112-112M160 398V96"></path>
  </symbol>
  <symbol xmlns="http://www.w3.org/2000/svg" viewBox="0 0 512 512" id="shopping">
  <symbol xmlns="http://www.w3.org/2000/svg" viewBox="0 0 512 512" id="shopping">
    <circle cx="176" cy="416" r="16" fill="none" stroke="currentColor" stroke-linecap="round" stroke-linejoin="round" stroke-width="32"></circle>
    <circle cx="400" cy="416" r="16" fill="none" stroke="currentColor" stroke-linecap="round" stroke-linejoin="round" stroke-width="32"></circle>
    <path fill="none" stroke="currentColor" stroke-linecap="round" stroke-linejoin="round" stroke-width="32" d="M48 80h64l48 272h256"></path>
    <path d="M160 288h249.44a8 8 0 007.85-6.43l28.8-144a8 8 0 00-7.85-9.57H128" fill="none" stroke="currentColor" stroke-linecap="round" stroke-linejoin="round" stroke-width="32"></path>
  </symbol>
  <symbol xmlns="http://www.w3.org/2000/svg" viewBox="0 -960 960 960" id="dolar-sign">
    <path d="M481-120q-17 0-28.5-11.5T441-160v-46q-45-10-79-35t-55-70q-7-14-.5-29.5T330-363q14-6 29 .5t23 21.5q17 30 43 45.5t64 15.5q41 0 69.5-18.5T587-356q0-35-22-55.5T463-458q-86-27-118-64.5T313-614q0-65 42-101t86-41v-44q0-17 11.5-28.5T481-840q17 0 28.5 11.5T521-800v44q38 6 66 24.5t46 45.5q9 13 3.5 29T614-634q-14 6-29 .5T557-653q-13-14-30.5-21.5T483-682q-44 0-67 19.5T393-614q0 33 30 52t104 40q69 20 104.5 63.5T667-358q0 71-42 108t-104 46v44q0 17-11.5 28.5T481-120Z"></path>
  </symbol>
 <symbol xmlns="http://www.w3.org/2000/svg" viewBox="0 -960 960 960" id="books">
    <path d="M440-400h80q17 0 28.5-11.5T560-440q0-17-11.5-28.5T520-480h-80q-17 0-28.5 11.5T400-440q0 17 11.5 28.5T440-400Zm0-120h240q17 0 28.5-11.5T720-560q0-17-11.5-28.5T680-600H440q-17 0-28.5 11.5T400-560q0 17 11.5 28.5T440-520Zm0-120h240q17 0 28.5-11.5T720-680q0-17-11.5-28.5T680-720H440q-17 0-28.5 11.5T400-680q0 17 11.5 28.5T440-640ZM320-240q-33 0-56.5-23.5T240-320v-480q0-33 23.5-56.5T320-880h480q33 0 56.5 23.5T880-800v480q0 33-23.5 56.5T800-240H320Zm0-80h480v-480H320v480ZM160-80q-33 0-56.5-23.5T80-160v-520q0-17 11.5-28.5T120-720q17 0 28.5 11.5T160-680v520h520q17 0 28.5 11.5T720-120q0 17-11.5 28.5T680-80H160Zm160-720v480-480Z"></path>
  </symbol>
  <symbol xmlns="http://www.w3.org/2000/svg" viewBox="0 -960 960 960" id="music">
    <path d="M280-120h-80q-33 0-56.5-23.5T120-200v-280q0-75 28.5-140.5t77-114q48.5-48.5 114-77T480-840q75 0 140.5 28.5t114 77q48.5 48.5 77 114T840-480v280q0 33-23.5 56.5T760-120h-80q-33 0-56.5-23.5T600-200v-160q0-33 23.5-56.5T680-440h80v-40q0-117-81.5-198.5T480-760q-117 0-198.5 81.5T200-480v40h80q33 0 56.5 23.5T360-360v160q0 33-23.5 56.5T280-120Zm0-240h-80v160h80v-160Zm400 0v160h80v-160h-80Zm-400 0h-80 80Zm400 0h80-80Z"></path>
  </symbol>
  <symbol xmlns="http://www.w3.org/2000/svg" viewBox="0 -960 960 960" id="exercise">
    <path d="m826-585-56-56 30-31-128-128-31 30-57-57 30-31q23-23 57-22.5t57 23.5l129 129q23 23 23 56.5T857-615l-31 30ZM346-104q-23 23-56.5 23T233-104L104-233q-23-23-23-56.5t23-56.5l30-30 57 57-31 30 129 129 30-31 57 57-30 30Zm397-336 57-57-303-303-57 57 303 303ZM463-160l57-58-302-302-58 57 303 303Zm-6-234 110-109-64-64-109 110 63 63Zm63 290q-23 23-57 23t-57-23L104-406q-23-23-23-57t23-57l57-57q23-23 56.5-23t56.5 23l63 63 110-110-63-62q-23-23-23-57t23-57l57-57q23-23 56.5-23t56.5 23l303 303q23 23 23 56.5T857-441l-57 57q-23 23-57 23t-57-23l-62-63-110 110 63 63q23 23 23 56.5T577-161l-57 57Z"></path>
  </symbol>
  <symbol xmlns="http://www.w3.org/2000/svg" viewBox="0 -960 960 960" id="news">
    <path d="M480-280q17 0 28.5-11.5T520-320v-160q0-17-11.5-28.5T480-520q-17 0-28.5 11.5T440-480v160q0 17 11.5 28.5T480-280Zm0-320q17 0 28.5-11.5T520-640q0-17-11.5-28.5T480-680q-17 0-28.5 11.5T440-640q0 17 11.5 28.5T480-600Zm0 520q-83 0-156-31.5T197-197q-54-54-85.5-127T80-480q0-83 31.5-156T197-763q54-54 127-85.5T480-880q83 0 156 31.5T763-763q54 54 85.5 127T880-480q0 83-31.5 156T763-197q-54 54-127 85.5T480-80Zm0-80q134 0 227-93t93-227q0-134-93-227t-227-93q-134 0-227 93t-93 227q0 134 93 227t227 93Zm0-320Z"></path>
  </symbol>
  <symbol xmlns="http://www.w3.org/2000/svg" viewBox="0 -960 960 960" id="social">
    <path d="M40-240q-17 0-28.5-11.5T0-280v-23q0-43 44-70t116-27q13 0 25 .5t23 2.5q-14 21-21 44t-7 48v65H40Zm240 0q-17 0-28.5-11.5T240-280v-25q0-32 17.5-58.5T307-410q32-20 76.5-30t96.5-10q53 0 97.5 10t76.5 30q32 20 49 46.5t17 58.5v25q0 17-11.5 28.5T680-240H280Zm500 0v-65q0-26-6.5-49T754-397q11-2 22.5-2.5t23.5-.5q72 0 116 26.5t44 70.5v23q0 17-11.5 28.5T920-240H780Zm-455-80h311q-10-20-55.5-35T480-370q-55 0-100.5 15T325-320ZM160-440q-33 0-56.5-23.5T80-520q0-34 23.5-57t56.5-23q34 0 57 23t23 57q0 33-23 56.5T160-440Zm640 0q-33 0-56.5-23.5T720-520q0-34 23.5-57t56.5-23q34 0 57 23t23 57q0 33-23 56.5T800-440Zm-320-40q-50 0-85-35t-35-85q0-51 35-85.5t85-34.5q51 0 85.5 34.5T600-600q0 50-34.5 85T480-480Zm0-80q17 0 28.5-11.5T520-600q0-17-11.5-28.5T480-640q-17 0-28.5 11.5T440-600q0 17 11.5 28.5T480-560Zm1 240Zm-1-280Z"></path>
  </symbol>
  <symbol xmlns="http://www.w3.org/2000/svg" viewBox="0 -960 960 960" id="entertainment">
    <path d="m442-380 166-106q18-12 18-34t-18-34L442-660q-20-13-41-2t-21 35v214q0 24 21 35t41-2ZM160-200q-33 0-56.5-23.5T80-280v-480q0-33 23.5-56.5T160-840h640q33 0 56.5 23.5T880-760v480q0 33-23.5 56.5T800-200H640v40q0 17-11.5 28.5T600-120H360q-17 0-28.5-11.5T320-160v-40H160Zm0-80h640v-480H160v480Zm0 0v-480 480Z"></path>
  </symbol>
  <symbol xmlns="http://www.w3.org/2000/svg" viewBox="0 -960 960 960" id="productivity">
    <path d="M80-320v-112q0-34 17.5-62.5T144-538q62-31 126-46.5T400-600q45 0 89 7t88 22q-17 14-31 30.5T521-505q-30-8-60-11.5t-61-3.5q-56 0-111 13.5T180-466q-9 5-14.5 14t-5.5 20v32h323q-2 20-2 40t2 40H80Zm320-80Zm0-240q-66 0-113-47t-47-113q0-66 47-113t113-47q66 0 113 47t47 113q0 66-47 113t-113 47Zm0-80q33 0 56.5-23.5T480-800q0-33-23.5-56.5T400-880q-33 0-56.5 23.5T320-800q0 33 23.5 56.5T400-720Zm0-80Zm400 0q0 66-47 113t-113 47q-11 0-28-2.5t-28-5.5q27-32 41.5-71t14.5-81q0-42-14.5-81T584-952q14-5 28-6.5t28-1.5q66 0 113 47t47 113Zm-40 640q-83 0-141.5-58.5T560-360q0-84 58.5-142T760-560q84 0 142 58t58 142q0 83-58 141.5T760-160Zm-28-110 141-142-28-28-113 113-57-57-28 29 85 85Z"></path>
  </symbol>
  <symbol xmlns="http://www.w3.org/2000/svg" viewBox="0 -960 960 960" id="lifeStyle">
    <path d="M280-80v-240h-64q-40 0-68-28t-28-68q0-29 16-53.5t42-36.5l262-116v-26q-36-13-58-43.5T360-760q0-50 35-85t85-35q50 0 85 35t35 85h-80q0-17-11.5-28.5T480-800q-17 0-28.5 11.5T440-760q0 17 11.5 28.5T480-720t28.5 11.5Q520-697 520-680v58l262 116q26 12 42 36.5t16 53.5q0 40-28 68t-68 28h-64v240H280Zm-64-320h64v-40h400v40h64q7 0 11.5-5t4.5-13q0-5-2.5-8.5T750-432L480-552 210-432q-5 2-7.5 5.5T200-418q0 8 4.5 13t11.5 5Zm144 240h240v-200H360v200Zm0-200h240-240Z"></path>
  </symbol>
  <symbol xmlns="http://www.w3.org/2000/svg" viewBox="0 -960 960 960" id="travel">
    <path d="m574-129-214-75-186 72q-10 4-19.5 2.5T137-136q-8-5-12.5-13.5T120-169v-561q0-13 7.5-23t20.5-15l186-63q6-2 12.5-3t13.5-1q7 0 13.5 1t12.5 3l214 75 186-72q10-4 19.5-2.5T823-824q8 5 12.5 13.5T840-791v561q0 13-7.5 23T812-192l-186 63q-6 2-12.5 3t-13.5 1q-7 0-13.5-1t-12.5-3Zm-14-89v-468l-160-56v468l160 56Zm80 0 120-40v-474l-120 46v468Zm-440-10 120-46v-468l-120 40v474Zm440-458v468-468Zm-320-56v468-468Z"></path>
  </symbol>
  <symbol xmlns="http://www.w3.org/2000/svg" viewBox="0 -960 960 960" id="health">
    <path d="M480-480Zm0 360q-18 0-34.5-6.5T416-146L148-415q-35-35-51.5-80T80-589q0-103 67-177t167-74q48 0 90.5 19t75.5 53q32-34 74.5-53t90.5-19q100 0 167.5 74T880-590q0 49-17 94t-51 80L543-146q-13 13-29 19.5t-34 6.5Zm40-520q10 0 19 5t14 13l68 102h166q7-17 10.5-34.5T801-590q-2-69-46-118.5T645-758q-31 0-59.5 12T536-711l-27 29q-5 6-13 9.5t-16 3.5q-8 0-16-3.5t-14-9.5l-27-29q-21-23-49-36t-60-13q-66 0-110 50.5T160-590q0 18 3 35.5t10 34.5h187q10 0 19 5t14 13l35 52 54-162q4-12 14.5-20t23.5-8Zm12 130-54 162q-4 12-15 20t-24 8q-10 0-19-5t-14-13l-68-102H236l237 237q2 2 3.5 2.5t3.5.5q2 0 3.5-.5t3.5-2.5l236-237H600q-10 0-19-5t-15-13l-34-52Z"></path>
  </symbol>
  <symbol xmlns="http://www.w3.org/2000/svg" viewBox="0 -960 960 960" id="finances">
    <path d="M560-440q-50 0-85-35t-35-85q0-50 35-85t85-35q50 0 85 35t35 85q0 50-35 85t-85 35ZM280-320q-33 0-56.5-23.5T200-400v-320q0-33 23.5-56.5T280-800h560q33 0 56.5 23.5T920-720v320q0 33-23.5 56.5T840-320H280Zm80-80h400q0-33 23.5-56.5T840-480v-160q-33 0-56.5-23.5T760-720H360q0 33-23.5 56.5T280-640v160q33 0 56.5 23.5T360-400Zm400 240H120q-33 0-56.5-23.5T40-240v-400q0-17 11.5-28.5T80-680q17 0 28.5 11.5T120-640v400h640q17 0 28.5 11.5T800-200q0 17-11.5 28.5T760-160ZM280-400v-320 320Z"></path>
  </symbol>
  <symbol xmlns="http://www.w3.org/2000/svg" viewBox="0 -960 960 960" id="education">
    <path d="M242-249q-20-11-31-29.5T200-320v-192l-96-53q-11-6-16-15t-5-20q0-11 5-20t16-15l338-184q9-5 18.5-7.5T480-829q10 0 19.5 2.5T518-819l381 208q10 5 15.5 14.5T920-576v256q0 17-11.5 28.5T880-280q-17 0-28.5-11.5T840-320v-236l-80 44v192q0 23-11 41.5T718-249L518-141q-9 5-18.5 7.5T480-131q-10 0-19.5-2.5T442-141L242-249Zm238-203 274-148-274-148-274 148 274 148Zm0 241 200-108v-151l-161 89q-9 5-19 7.5t-20 2.5q-10 0-20-2.5t-19-7.5l-161-89v151l200 108Zm0-241Zm0 121Zm0 0Z"></path>
  </symbol>
  <symbol xmlns="http://www.w3.org/2000/svg" viewBox="0 -960 960 960" id="games">
    <path d="M189-160q-60 0-102.5-43T42-307q0-9 1-18t3-18l84-336q14-54 57-87.5t98-33.5h390q55 0 98 33.5t57 87.5l84 336q2 9 3.5 18.5T919-306q0 61-43.5 103.5T771-160q-42 0-78-22t-54-60l-28-58q-5-10-15-15t-21-5H385q-11 0-21 5t-15 15l-28 58q-18 38-54 60t-78 22Zm3-80q19 0 34.5-10t23.5-27l28-57q15-31 44-48.5t63-17.5h190q34 0 63 18t45 48l28 57q8 17 23.5 27t34.5 10q28 0 48-18.5t21-46.5q0 1-2-19l-84-335q-7-27-28-44t-49-17H285q-28 0-49.5 17T208-659l-84 335q-2 6-2 18 0 28 20.5 47t49.5 19Zm348-280q17 0 28.5-11.5T580-560q0-17-11.5-28.5T540-600q-17 0-28.5 11.5T500-560q0 17 11.5 28.5T540-520Zm80-80q17 0 28.5-11.5T660-640q0-17-11.5-28.5T620-680q-17 0-28.5 11.5T580-640q0 17 11.5 28.5T620-600Zm0 160q17 0 28.5-11.5T660-480q0-17-11.5-28.5T620-520q-17 0-28.5 11.5T580-480q0 17 11.5 28.5T620-440Zm80-80q17 0 28.5-11.5T740-560q0-17-11.5-28.5T700-600q-17 0-28.5 11.5T660-560q0 17 11.5 28.5T700-520Zm-360 60q13 0 21.5-8.5T370-490v-40h40q13 0 21.5-8.5T440-560q0-13-8.5-21.5T410-590h-40v-40q0-13-8.5-21.5T340-660q-13 0-21.5 8.5T310-630v40h-40q-13 0-21.5 8.5T240-560q0 13 8.5 21.5T270-530h40v40q0 13 8.5 21.5T340-460Zm140-20Z"></path>
  </symbol>
  <symbol xmlns="http://www.w3.org/2000/svg" viewBox="0 -960 960 960" id="services">
    <path d="M222-540q-12-5-22.5-10.5T178-564l-29 9q-13 4-25.5-1T104-572l-8-14q-7-12-5-26t13-23l22-19q-2-13-2-26t2-26l-22-19q-11-9-13-22.5t5-25.5l9-15q7-11 19-16t25-1l29 9q11-8 21.5-13.5T222-820l6-29q3-14 13.5-22.5T266-880h16q14 0 24.5 9t13.5 23l6 28q12 5 22.5 10.5T370-796l29-9q13-4 25.5 1t19.5 16l8 14q7 12 5 26t-13 23l-22 19q2 13 2 26t-2 26l22 19q11 9 13 22.5t-5 25.5l-9 15q-7 11-19 16t-25 1l-29-9q-11 8-21.5 13.5T326-540l-6 29q-3 14-13.5 22.5T282-480h-16q-14 0-24.5-9T228-512l-6-28Zm52-60q33 0 56.5-23.5T354-680q0-33-23.5-56.5T274-760q-33 0-56.5 23.5T194-680q0 33 23.5 56.5T274-600Zm300 476q-17-6-31.5-14.5T514-158l-38 12q-18 6-36-.5T412-170l-11-19q-10-17-7-36.5t18-32.5l30-26q-2-18-2-36t2-36l-30-27q-15-13-18-32t7-36l11-19q10-17 28-23.5t36-.5l38 12q14-11 28.5-19.5T574-516l9-41q4-19 18.5-31t34.5-12h24q20 0 34.5 12t18.5 31l9 41q17 6 31.5 14.5T782-482l38-12q18-6 36 .5t28 23.5l11 19q10 17 7 36.5T884-382l-30 26q2 18 2 36t-2 36l30 27q15 13 18 32t-7 36l-11 19q-10 17-28 23.5t-36 .5l-38-12q-14 11-28.5 19.5T722-124l-9 41q-4 19-18.5 31T660-40h-24q-20 0-34.5-12T583-83l-9-41Zm74-76q50 0 85-35t35-85q0-50-35-85t-85-35q-50 0-85 35t-35 85q0 50 35 85t85 35Z"></path>
  </symbol>
  <symbol xmlns="http://www.w3.org/2000/svg" viewBox="0 -960 960 960" id="subscriptions">
    <path d="M160-80q-33 0-56.5-23.5T80-160v-400q0-33 23.5-56.5T160-640h640q33 0 56.5 23.5T880-560v400q0 33-23.5 56.5T800-80H160Zm0-80h640v-400H160v400Zm271-61 184-122q9-6 9-17t-9-17L431-499q-10-7-20.5-1.5T400-483v246q0 12 10.5 17.5T431-221ZM200-680q-17 0-28.5-11.5T160-720q0-17 11.5-28.5T200-760h560q17 0 28.5 11.5T800-720q0 17-11.5 28.5T760-680H200Zm120-120q-17 0-28.5-11.5T280-840q0-17 11.5-28.5T320-880h320q17 0 28.5 11.5T680-840q0 17-11.5 28.5T640-800H320ZM160-160v-400 400Z"></path>
  </symbol>
  <symbol xmlns="http://www.w3.org/2000/svg" viewBox="0 -960 960 960" id="publishing">
    <path d="M840-440h-80q-17 0-28.5-11.5T720-480q0-17 11.5-28.5T760-520h80q17 0 28.5 11.5T880-480q0 17-11.5 28.5T840-440ZM664-288q10-14 26-16t30 8l64 48q14 10 16 26t-8 30q-10 14-26 16t-30-8l-64-48q-14-10-16-26t8-30Zm120-424-64 48q-14 10-30 8t-26-16q-10-14-8-30t16-26l64-48q14-10 30-8t26 16q10 14 8 30t-16 26ZM200-360h-40q-33 0-56.5-23.5T80-440v-80q0-33 23.5-56.5T160-600h160l139-84q20-12 40.5 0t20.5 35v338q0 23-20.5 35t-40.5 0l-139-84h-40v120q0 17-11.5 28.5T240-200q-17 0-28.5-11.5T200-240v-120Zm240-22v-196l-98 58H160v80h182l98 58Zm120 36v-268q27 24 43.5 58.5T620-480q0 41-16.5 75.5T560-346ZM300-480Z"></path>
  </symbol>
   <symbol xmlns="http://www.w3.org/2000/svg" viewBox="0 0 512 512" id="ribbon">
    <circle cx="256" cy="160" r="128" fill="none" stroke="currentColor" stroke-linecap="round" stroke-linejoin="round" stroke-width="32"></circle>
    <path d="M143.65 227.82L48 400l86.86-.42a16 16 0 0113.82 7.8L192 480l88.33-194.32" fill="none" stroke="currentColor" stroke-linecap="round" stroke-linejoin="round" stroke-width="32"></path>
    <path d="M366.54 224L464 400l-86.86-.42a16 16 0 00-13.82 7.8L320 480l-64-140.8" fill="none" stroke="currentColor" stroke-linecap="round" stroke-linejoin="round" stroke-width="32"></path>
    <circle cx="256" cy="160" r="64" fill="none" stroke="currentColor" stroke-linecap="round" stroke-linejoin="round" stroke-width="32"></circle>
  </symbol>
  <symbol xmlns="http://www.w3.org/2000/svg" viewBox="0 -960 960 960" id="gift">
    <path d="M160-280v80h640v-80H160Zm0-440h88q-5-9-6.5-19t-1.5-21q0-50 35-85t85-35q30 0 55.5 15.5T460-826l20 26 20-26q18-24 44-39t56-15q50 0 85 35t35 85q0 11-1.5 21t-6.5 19h88q33 0 56.5 23.5T880-640v440q0 33-23.5 56.5T800-120H160q-33 0-56.5-23.5T80-200v-440q0-33 23.5-56.5T160-720Zm0 320h640v-240H596l60 82q10 14 8 29.5T648-503q-14 10-29.5 7.5T593-511L480-664 367-511q-10 13-25.5 15.5T312-503q-14-10-16.5-25.5T303-558l59-82H160v240Zm200-320q17 0 28.5-11.5T400-760q0-17-11.5-28.5T360-800q-17 0-28.5 11.5T320-760q0 17 11.5 28.5T360-720Zm240 0q17 0 28.5-11.5T640-760q0-17-11.5-28.5T600-800q-17 0-28.5 11.5T560-760q0 17 11.5 28.5T600-720Z"></path>
  </symbol>
  <symbol xmlns="http://www.w3.org/2000/svg" viewBox="0 -960 960 960" id="donations">
    <path d="m558-144 238-74q-5-9-14.5-15.5T760-240H558q-27 0-43-2t-33-8l-57-19q-16-5-23-20t-2-31q5-16 19.5-23.5T450-346l42 14q17 5 38.5 8t58.5 4h11q0-11-6.5-21T578-354l-234-86h-64v220l278 76Zm-21 78-257-72q-8 26-31.5 42T200-80h-80q-33 0-56.5-23.5T40-160v-280q0-33 23.5-56.5T120-520h224q7 0 14 1.5t13 3.5l235 87q33 12 53.5 42t20.5 66h80q50 0 85 33t35 87q0 22-11.5 34.5T833-145L583-67q-11 4-23 4t-23-3Zm-417-94h80v-280h-80v280Zm520-312q-15 0-29.5-5.5T584-494L474-602q-31-30-52.5-66.5T400-748q0-55 38.5-93.5T532-880q32 0 60 13.5t48 36.5q20-23 48-36.5t60-13.5q55 0 93.5 38.5T880-748q0 43-21 79.5T807-602L696-494q-12 11-26.5 16.5T640-472Zm0-80 109-107q19-19 35-40.5t16-48.5q0-22-15-37t-37-15q-14 0-26.5 5.5T700-778l-29 35q-12 14-31 14t-31-14l-29-35q-9-11-21.5-16.5T532-800q-22 0-37 15t-15 37q0 27 16 48.5t35 40.5l109 107Zm0-154Z"></path>
  </symbol>
</svg>